<?xml version="1.0" encoding="UTF-8"?>
<svg width="16" height="16" id="Capa_1" data-name="Capa 1" xmlns="http://www.w3.org/2000/svg" version="1.1" viewBox="0 0 1080 1080">
  <defs>
    <style>
      .cls-1 {
        fill: #f8ac3e;
      }

      .cls-1, .cls-2, .cls-3 {
        stroke-width: 0px;
      }

      .cls-4 {
        font-family: Poppins-ExtraBold, Poppins;
        font-size: 220px;
        font-weight: 700;
      }

      .cls-4, .cls-3 {
        fill: #4b102f;
      }

      .cls-4, .cls-5 {
        isolation: isolate;
      }

      .cls-2 {
        fill: #ea532c;
      }
    </style>
  </defs>
  <g>
    <g>
      <path class="cls-3" d="M574.9,587.5h0c-15.3,14.7-37.5,11.6-49.7-7.1l-231.2-356,55.5-53.4,231.2,356.1c12.1,18.6,9.5,45.7-5.8,60.4h0Z"/>
      <path class="cls-2" d="M372.9,345.8l152.3,234.6c12.1,18.6,34.3,21.8,49.7,7.1h0c15.3-14.7,17.9-41.8,5.8-60.4l-152.3-234.6-55.5,53.4h0Z"/>
      <path class="cls-3" d="M469.9,72.2l-16.1,15.5s-49.8-42.4-105.7-9.8c-13.7,8-19.4,28.3-12.8,45.1l17.6,44.8-60.8,58.4-55.9-45.7-39.3-60.5,78.2-75.2c10.6-10.2,23.2-16.7,36.6-19.1,38.9-6.8,119.9-12.5,158.2,46.4h0Z"/>
      <path class="cls-3" d="M236.3,180.6c-39.1,1.2-43.3,41.6-43.3,41.6l-39.3-60.5c39.1-1.2,43.3-41.6,43.3-41.6l39.3,60.5Z"/>
      <path class="cls-3" d="M137.9,159.3l-24.4,23.5c-5,4.8-5.9,13.7-1.9,19.8l39,60.1c4,6.1,11.2,7.1,16.3,2.3l24.4-23.5c5-4.8,5.9-13.7,1.9-19.8l-39-60.1c-4-6.1-11.2-7.1-16.3-2.3h0Z"/>
      <path class="cls-3" d="M137.9,159.3l-24.4,23.5c-5,4.8-5.9,13.7-1.9,19.8l39,60.1c4,6.1,11.2,7.1,16.3,2.3l24.4-23.5c5-4.8,5.9-13.7,1.9-19.8l-39-60.1c-4-6.1-11.2-7.1-16.3-2.3h0Z"/>
    </g>
    <g>
      <path class="cls-3" d="M886.9,253.5l-72.1,22.6c-14.6,4.6-30.2-.7-40.8-13.9l-52.1-64.7c-10.6-13.1-14.6-32.2-10.5-49.9l20-87.4c4-17.7,15.6-31.5,30.2-36.1L833.7,1.6c3.8-1.2,7.7-1.7,11.5-1.6,13,.3,19.3,19.4,10,30.5l-68.1,81.3c-9.3,11.1-9.4,29.1-.3,40.4l25.8,32.1c9.1,11.3,23.9,11.5,33.2.4l68.2-81.3c9-10.7,24.5-3.5,24.8,11.8,0,5-.4,10.1-1.5,15l-20,87.3c-4.1,17.7-15.6,31.5-30.2,36.1h-.2Z"/>
      <path class="cls-3" d="M439.9,603.4h0c-15.8-19.6-15.6-51,.3-70.3l279-338.9,57.5,71.4-278.4,338.2c-16.1,19.6-42.4,19.5-58.3-.4h-.1Z"/>
      <path class="cls-2" d="M479.2,555.1h0c-8.8-11.2-8.4-28.9.8-39.6l158.3-190c9.2-10.7,23.8-10.2,32.5.9h0c8.8,11.2,8.4,28.9-.8,39.6l-158.3,190c-9.2,10.7-23.8,10.2-32.5-.9h0Z"/>
    </g>
    <g>
      <path class="cls-2" d="M840.8,677.6c1.7-16,2.7-32.2,2.7-48.8,0-206.1-137.3-373.2-306.6-373.2s-306.6,167.1-306.6,373.2,1,32.8,2.7,48.8h607.8Z"/>
      <path class="cls-1" d="M406.6,290.9c-104.2,59.6-176.4,188.5-176.4,337.9s1,32.8,2.7,48.8h173.7v-386.7h0Z"/>
      <path class="cls-1" d="M667.1,290.9c104.2,59.6,176.4,188.5,176.4,337.9s-1,32.8-2.7,48.8h-173.7v-386.7h0Z"/>
      <path class="cls-1" d="M629.1,711.1h-178v-444.2c0-30.6,20.4-55.4,45.5-55.4h86.8c25.2,0,45.5,24.8,45.5,55.4v444.2h.2Z"/>
      <path class="cls-1" d="M851.1,744.6H223.8c-15,0-27.2-14.8-27.2-33.2v-.7c0-18.3,12.2-33.2,27.2-33.2h627.2c15,0,27.2,14.8,27.2,33.2v.7c0,18.3-12.2,33.2-27.2,33.2h0Z"/>
    </g>
    <g>
      <path class="cls-2" d="M238,387.8c-1.4-6.5-3.5-12.6-6.2-18.2l8.3-17-15.1-18.4-13.9,10.1c-4.6-3.3-9.6-5.9-15-7.6l-4-19.1h-21.4l-4,19.1c-5.3,1.7-10.4,4.3-15,7.6l-13.9-10.1-15.1,18.4,8.3,17c-2.7,5.6-4.8,11.7-6.2,18.2l-15.7,4.9v26l15.7,4.9c1.4,6.5,3.5,12.6,6.2,18.2l-8.3,17,15.1,18.4,13.9-10.1c4.6,3.3,9.6,5.9,15,7.6l4,19.1h21.4l4-19.1c5.3-1.7,10.4-4.3,15-7.6l13.9,10.1,15.1-18.4-8.3-17c2.7-5.6,4.9-11.7,6.2-18.2l15.7-4.9v-26l-15.7-4.9h0ZM181.4,441c-16,0-29.1-15.8-29.1-35.4h0c0-19.5,13-35.4,29.1-35.4s29.1,15.8,29.1,35.4h0c0,19.5-13,35.4-29.1,35.4Z"/>
      <path class="cls-2" d="M953.2,387.8c-1.4-6.5-3.5-12.6-6.2-18.2l8.3-17-15.1-18.4-14,10.1c-4.6-3.3-9.7-5.9-15-7.6l-4-19.1h-21.3l-4,19.1c-5.3,1.7-10.3,4.3-15,7.6l-14-10.1-15.1,18.4,8.3,17c-2.7,5.6-4.8,11.7-6.2,18.2l-15.7,4.9v26l15.7,4.9c1.4,6.5,3.5,12.6,6.2,18.2l-8.3,17,15.1,18.4,14-10.1c4.6,3.3,9.7,5.9,15,7.6l4,19.1h21.3l4-19.1c5.3-1.7,10.3-4.3,15-7.6l14,10.1,15.1-18.4-8.3-17c2.7-5.6,4.8-11.7,6.2-18.2l15.7-4.9v-26l-15.7-4.9ZM896.6,441c-16,0-29-15.8-29-35.4h0c0-19.5,13-35.4,29-35.4s29,15.8,29,35.4h0c0,19.5-13,35.4-29,35.4Z"/>
    </g>
  </g>
  <g class="cls-5">
    <text class="cls-4" transform="translate(79.3 925.1) scale(.6 1)"><tspan x="0" y="0">BUILDING APP</tspan></text>
  </g>
</svg>