<?xml version="1.0" encoding="UTF-8"?>
<svg id="Capa_1" data-name="Capa 1" xmlns="http://www.w3.org/2000/svg" viewBox="0 0 1068.19 943.71">
  <g>
    <g>
      <path d="M568.43,589.48h0c-15.64,14.78-38.34,11.6-50.7-7.1l-236.07-357.27,56.64-53.54,236.07,357.27c12.36,18.71,9.7,45.86-5.94,60.64Z" style="fill: #4b102f; stroke-width: 0px;"/>
      <path d="M362.18,346.97l155.54,235.41c12.36,18.71,35.06,21.89,50.7,7.1h0c15.64-14.78,18.3-41.94,5.94-60.64l-155.54-235.41-56.64,53.54Z" style="fill: #ea532c; stroke-width: 0px;"/>
      <path d="M461.27,72.49l-16.47,15.57s-50.85-42.56-107.97-9.81c-14.04,8.05-19.76,28.42-13.03,45.21l17.99,44.92-62.04,58.64-57.04-45.84-40.13-60.74,79.81-75.44c10.82-10.22,23.7-16.78,37.35-19.12,39.71-6.8,122.45-12.55,161.54,46.61Z" style="fill: #4b102f; stroke-width: 0px;"/>
      <path d="M222.72,181.19c-39.91,1.19-44.2,41.78-44.2,41.78l-40.12-60.72c39.91-1.19,44.2-41.78,44.2-41.78l40.12,60.72Z" style="fill: #4b102f; stroke-width: 0px;"/>
      <path d="M122.2,159.85l-24.97,23.6c-5.12,4.84-5.99,13.74-1.95,19.87l39.87,60.34c4.05,6.13,11.49,7.17,16.61,2.33l24.97-23.6c5.12-4.84,5.99-13.74,1.95-19.87l-39.87-60.34c-4.05-6.13-11.49-7.17-16.61-2.33Z" style="fill: #4b102f; stroke-width: 0px;"/>
      <path d="M122.2,159.85l-24.97,23.6c-5.12,4.84-5.99,13.74-1.95,19.87l39.87,60.34c4.05,6.13,11.49,7.17,16.61,2.33l24.97-23.6c5.12-4.84,5.99-13.74,1.95-19.87l-39.87-60.34c-4.05-6.13-11.49-7.17-16.61-2.33Z" style="fill: #4b102f; stroke-width: 0px;"/>
    </g>
    <g>
      <path d="M887.08,254.36l-73.67,22.67c-14.94,4.59-30.83-.69-41.65-13.89l-53.23-64.96c-10.8-13.18-14.9-32.28-10.76-50.06l20.42-87.66c4.14-17.78,15.91-31.57,30.87-36.19L832.72,1.64c3.88-1.2,7.82-1.73,11.72-1.63,13.25.35,19.69,19.49,10.22,30.58l-69.59,81.58c-9.46,11.09-9.6,29.22-.34,40.51l26.38,32.2c9.26,11.3,24.41,11.5,33.87.41l69.63-81.62c9.17-10.75,25.02-3.55,25.32,11.8.1,5.03-.42,10.11-1.58,15.1l-20.42,87.62c-4.16,17.79-15.93,31.59-30.87,36.19Z" style="fill: #4b102f; stroke-width: 0px;"/>
      <path d="M430.59,605.5h0c-16.1-19.65-15.96-51.15.32-70.59l284.89-340.06,58.7,71.64-284.34,339.4c-16.49,19.7-43.26,19.53-59.57-.38Z" style="fill: #4b102f; stroke-width: 0px;"/>
      <path d="M470.76,557.01h0c-8.96-11.24-8.6-29.03.79-39.75l161.62-190.61c9.4-10.71,24.27-10.29,33.23.95h0c8.96,11.24,8.6,29.03-.79,39.74l-161.62,190.61c-9.4,10.71-24.27,10.29-33.23-.95Z" style="fill: #ea532c; stroke-width: 0px;"/>
    </g>
    <g>
      <path d="M839.97,679.95c1.75-16.03,2.75-32.35,2.75-48.96,0-206.83-140.19-374.5-313.11-374.5s-313.11,167.67-313.11,374.5c0,16.61,1,32.92,2.75,48.96h620.72Z" style="fill: #ea532c; stroke-width: 0px;"/>
      <path d="M396.6,291.93c-106.41,59.82-180.11,189.12-180.11,339.06,0,16.61,1,32.92,2.75,48.96h177.36v-388.02Z" style="fill: #f8ac3e; stroke-width: 0px;"/>
      <path d="M662.61,291.93c106.41,59.82,180.11,189.12,180.11,339.06,0,16.61-1,32.92-2.75,48.96h-177.36v-388.02Z" style="fill: #f8ac3e; stroke-width: 0px;"/>
      <path d="M623.79,713.54h-181.74v-445.71c0-30.73,20.83-55.64,46.52-55.64h88.69c25.69,0,46.52,24.91,46.52,55.64v445.71Z" style="fill: #f8ac3e; stroke-width: 0px;"/>
      <path d="M850.49,747.14H209.92c-15.36,0-27.81-14.89-27.81-33.26v-.67c0-18.37,12.45-33.26,27.81-33.26h640.57c15.36,0,27.81,14.89,27.81,33.26v.67c0,18.37-12.45,33.26-27.81,33.26Z" style="fill: #f8ac3e; stroke-width: 0px;"/>
    </g>
    <g>
      <path d="M224.43,389.13c-1.41-6.53-3.57-12.64-6.37-18.31l8.48-17.04-15.42-18.44-14.24,10.15c-4.74-3.34-9.85-5.93-15.31-7.62l-4.07-19.19h-21.8l-4.07,19.19c-5.46,1.69-10.57,4.27-15.31,7.62l-14.24-10.15-15.42,18.44,8.48,17.04c-2.79,5.67-4.95,11.78-6.37,18.31l-16.04,4.87v26.08l16.04,4.87c1.41,6.53,3.57,12.64,6.37,18.31l-8.48,17.04,15.42,18.44,14.24-10.15c4.74,3.34,9.85,5.93,15.31,7.62l4.07,19.19h21.8l4.07-19.19c5.46-1.69,10.57-4.27,15.31-7.62l14.24,10.15,15.42-18.44-8.48-17.04c2.79-5.67,4.95-11.78,6.37-18.31l16.04-4.87v-26.08l-16.04-4.87ZM166.6,442.52c-16.39,0-29.67-15.89-29.67-35.49h0c0-19.6,13.28-35.49,29.67-35.49s29.67,15.89,29.67,35.49h0c0,19.6-13.28,35.49-29.67,35.49Z" style="fill: #ea532c; stroke-width: 0px;"/>
      <path d="M954.76,389.13c-1.41-6.53-3.57-12.64-6.37-18.31l8.48-17.04-15.42-18.44-14.24,10.15c-4.74-3.34-9.85-5.93-15.31-7.62l-4.07-19.19h-21.8l-4.07,19.19c-5.46,1.69-10.57,4.27-15.31,7.62l-14.24-10.15-15.42,18.44,8.48,17.04c-2.79,5.67-4.95,11.78-6.37,18.31l-16.04,4.87v26.08l16.04,4.87c1.41,6.53,3.57,12.64,6.37,18.31l-8.48,17.04,15.42,18.44,14.24-10.15c4.74,3.34,9.85,5.93,15.31,7.62l4.07,19.19h21.8l4.07-19.19c5.46-1.69,10.57-4.27,15.31-7.62l14.24,10.15,15.42-18.44-8.48-17.04c2.79-5.67,4.95-11.78,6.37-18.31l16.04-4.87v-26.08l-16.04-4.87ZM896.94,442.52c-16.39,0-29.67-15.89-29.67-35.49h0c0-19.6,13.28-35.49,29.67-35.49s29.67,15.89,29.67,35.49h0c0,19.6-13.28,35.49-29.67,35.49Z" style="fill: #ea532c; stroke-width: 0px;"/>
    </g>
  </g>
  <g>
    <path d="M77.64,875.21c3.45,7.06,5.17,15.11,5.17,24.17,0,13.37-2.93,23.84-8.78,31.41-5.85,7.57-14.06,11.36-24.63,11.36H0v-157.05h47.85c10.19,0,18.19,3.56,23.99,10.69,5.8,7.13,8.71,17.15,8.71,30.07,0,9.21-1.54,16.9-4.6,23.06-3.07,6.17-7.15,10.36-12.25,12.59,5.85,2.08,10.5,6.65,13.94,13.7ZM27.75,847.48h14.01c6.98,0,10.47-4.53,10.47-13.59s-3.49-14.03-10.47-14.03h-14.01v27.62ZM54.36,893.15c0-4.75-.92-8.39-2.76-10.92-1.84-2.52-4.46-3.79-7.86-3.79h-16v28.51h16.14c6.98,0,10.48-4.6,10.48-13.81Z" style="fill: #4b102f; stroke-width: 0px;"/>
    <path d="M130.66,785.11v91.11c0,8.46,1.25,15,3.75,19.6,2.5,4.61,6.3,6.91,11.4,6.91s8.94-2.34,11.54-7.02c2.59-4.68,3.89-11.17,3.89-19.49v-91.11h27.75v91.11c0,14.41-1.94,26.7-5.8,36.87-3.87,10.17-9.13,17.82-15.78,22.94-6.65,5.12-14.04,7.69-22.15,7.69s-15.36-2.56-21.73-7.69c-6.37-5.12-11.37-12.73-15-22.83-3.63-10.1-5.45-22.42-5.45-36.98v-91.11h27.6Z" style="fill: #4b102f; stroke-width: 0px;"/>
    <path d="M240.51,785.11v157.05h-27.75v-157.05h27.75Z" style="fill: #4b102f; stroke-width: 0px;"/>
    <path d="M292.6,908.74h31v33.41h-58.75v-157.05h27.75v123.63Z" style="fill: #4b102f; stroke-width: 0px;"/>
    <path d="M409.88,795.02c7.88,6.61,13.94,15.85,18.19,27.73,4.25,11.88,6.37,25.47,6.37,40.77s-2.15,28.66-6.44,40.54c-4.3,11.88-10.38,21.2-18.26,27.96-7.88,6.76-17.01,10.14-27.39,10.14h-39.49v-157.05h39.49c10.48,0,19.65,3.31,27.53,9.91ZM399.33,893.15c4.62-6.98,6.94-16.85,6.94-29.63s-2.31-22.91-6.94-29.96c-4.62-7.05-11-10.58-19.11-10.58h-9.63v80.64h9.63c8.12,0,14.49-3.49,19.11-10.47Z" style="fill: #4b102f; stroke-width: 0px;"/>
    <path d="M483.14,785.11v157.05h-27.75v-157.05h27.75Z" style="fill: #4b102f; stroke-width: 0px;"/>
    <path d="M599.92,942.15h-27.75l-36.95-87.77v87.77h-27.75v-157.05h27.75l36.95,88.88v-88.88h27.75v157.05Z" style="fill: #4b102f; stroke-width: 0px;"/>
    <path d="M687.97,836.79c-1.61-4.16-3.8-7.35-6.58-9.58-2.79-2.23-6.07-3.34-9.84-3.34-6.99,0-12.48,3.56-16.49,10.69-4.01,7.13-6.02,16.71-6.02,28.74,0,13.52,2.15,23.8,6.44,30.85,4.29,7.05,10.55,10.58,18.76,10.58,9.72,0,16.66-6.91,20.81-20.72h-27.89v-31.41h51.81v42.33c-2.17,8.32-5.36,16.12-9.55,23.39-4.2,7.28-9.51,13.25-15.93,17.93-6.42,4.68-13.73,7.02-21.94,7.02-10,0-18.85-3.38-26.54-10.14-7.69-6.76-13.64-16.19-17.84-28.29-4.2-12.1-6.3-25.95-6.3-41.55s2.1-29.22,6.3-41.32c4.2-12.1,10.12-21.53,17.77-28.29,7.64-6.76,16.47-10.13,26.47-10.13,12.55,0,22.93,4.75,31.14,14.26,8.21,9.5,13.31,22.5,15.29,38.98h-29.87Z" style="fill: #4b102f; stroke-width: 0px;"/>
    <path d="M838.59,916.54h-35.39l-5.38,25.62h-29.16l36.38-157.05h31.99l36.24,157.05h-29.3l-5.38-25.62ZM831.65,883.12l-10.76-50.79-10.62,50.79h21.38Z" style="fill: #4b102f; stroke-width: 0px;"/>
    <path d="M965.49,863.41c-2.78,7.8-6.99,14.03-12.6,18.71-5.62,4.68-12.48,7.02-20.6,7.02h-13.73v53.02h-27.75v-157.05h41.48c8.02,0,14.84,2.23,20.46,6.68,5.61,4.46,9.84,10.62,12.67,18.49,2.83,7.87,4.25,16.93,4.25,27.18,0,9.51-1.39,18.16-4.18,25.95ZM941.36,837.46c0-11.43-3.92-17.15-11.75-17.15h-11.04v34.08h11.04c7.83,0,11.75-5.64,11.75-16.93Z" style="fill: #4b102f; stroke-width: 0px;"/>
    <path d="M1064.02,863.41c-2.78,7.8-6.99,14.03-12.6,18.71-5.62,4.68-12.48,7.02-20.6,7.02h-13.73v53.02h-27.75v-157.05h41.48c8.02,0,14.84,2.23,20.46,6.68,5.61,4.46,9.84,10.62,12.67,18.49,2.83,7.87,4.25,16.93,4.25,27.18,0,9.51-1.39,18.16-4.18,25.95ZM1039.88,837.46c0-11.43-3.92-17.15-11.75-17.15h-11.04v34.08h11.04c7.83,0,11.75-5.64,11.75-16.93Z" style="fill: #4b102f; stroke-width: 0px;"/>
  </g>
</svg>